<svg viewBox="0 0 256 256" xmlns="http://www.w3.org/2000/svg" role="img" aria-label="bus">
  <defs>
    <linearGradient id="bgbus" x1="0.2" y1="0" x2="0.8" y2="1">
      <stop offset="0" stop-color="#2A3850"/><stop offset="1" stop-color="#1A2433"/></linearGradient>
    <linearGradient id="hexFbus" x1="0" y1="0" x2="0" y2="1">
      <stop offset="0" stop-color="#33425C" stop-opacity="0.55"/><stop offset="1" stop-color="#33425C" stop-opacity="0.10"/></linearGradient>
    <linearGradient id="panelFbus" x1="0" y1="0" x2="0" y2="1">
      <stop offset="0" stop-color="#F3F7FC"/><stop offset="1" stop-color="#DEE8F4"/></linearGradient>
  </defs>
  <rect width="256" height="256" rx="60" fill="url(#bgbus)"/>
  <g transform="translate(128,128) scale(1.2) translate(-128,-128)">
  <polygon points="228.0,128.0 178.0,214.6 78.0,214.6 28.0,128.0 78.0,41.4 178.0,41.4" fill="url(#hexFbus)"/>
  <polygon points="228.0,128.0 178.0,214.6 78.0,214.6 28.0,128.0 78.0,41.4 178.0,41.4" fill="none" stroke="#E0A22B" stroke-opacity="0.60" stroke-width="2"/>
  <polygon points="206.0,128.0 167.0,195.5 89.0,195.5 50.0,128.0 89.0,60.5 167.0,60.5" fill="none" stroke="#E0A22B" stroke-opacity="0.28" stroke-width="1.5"/>
  <g transform="translate(0,-4)"><rect x="68" y="97" width="120" height="76" rx="14" fill="#0B0F17" opacity="0.45"/><rect x="68" y="94" width="120" height="76" rx="14" fill="url(#panelFbus)" stroke="#FFFFFF" stroke-opacity="0.90" stroke-width="1.5"/><rect x="68" y="94" width="120" height="34" rx="14" fill="#FFFFFF" fill-opacity="0.40"/><path d="M72 102 L128 141 L184 102" stroke="#E0A22B" stroke-width="4.5" fill="none" stroke-linecap="round" stroke-linejoin="round"/><path d="M72 162 L116 138" stroke="#9AA7BC" stroke-width="2.5" fill="none" stroke-linecap="round"/><path d="M184 162 L140 138" stroke="#9AA7BC" stroke-width="2.5" fill="none" stroke-linecap="round"/></g>
  </g>
  <rect x="1.5" y="1.5" width="253" height="253" rx="58.5" fill="none" stroke="#fff" stroke-opacity="0.42" stroke-width="2"/>
</svg>
